<svg xmlns="http://www.w3.org/2000/svg" viewBox="0 0 48 48"><linearGradient id="a" x1="948.474" x2="983.245" y1="-93.43" y2="-127.189" gradientTransform="matrix(3.0757 0 0 -3.0757 -2908.979 -278.654)" gradientUnits="userSpaceOnUse"><stop offset="0" stop-color="#6BC6BB"/><stop offset=".394" stop-color="#3F70B6"/><stop offset=".507" stop-color="#6A62AB"/><stop offset=".813" stop-color="#EE4761"/><stop offset="1" stop-color="#EB108B"/></linearGradient><path fill="url(#a)" d="M10 0h28c5.523 0 10 4.477 10 10v28c0 5.523-4.477 10-10 10H10C4.477 48 0 43.523 0 38V10C0 4.477 4.477 0 10 0z"/><path fill="#fff" d="m35.941 30.317-1.553-.897.883-.236a.499.499 0 1 0-.258-.966l-1.85.496-1.373-.793 2.25-.602a.501.501 0 0 0 .354-.613.505.505 0 0 0-.613-.354l-3.216.862-1.373-.792 3.615-.969a.501.501 0 0 0 .354-.613.504.504 0 0 0-.613-.354l-4.581 1.228L24.999 24l2.967-1.713 4.581 1.228a.5.5 0 0 0 .259-.966l-3.615-.969 1.373-.792 3.216.862a.5.5 0 0 0 .259-.966l-2.25-.602 1.373-.793 1.85.496a.5.5 0 0 0 .258-.966l-.883-.236 1.553-.897a.5.5 0 1 0-.5-.866l-1.552.896.237-.883a.5.5 0 0 0-.354-.612.509.509 0 0 0-.612.354l-.495 1.849-1.374.793.603-2.249a.5.5 0 0 0-.354-.613.508.508 0 0 0-.613.354l-.862 3.216-1.372.792.969-3.616a.5.5 0 0 0-.354-.612.508.508 0 0 0-.612.354l-1.227 4.581-2.968 1.71v-3.427l3.354-3.354a.5.5 0 0 0-.707-.707L24.5 18.293v-1.586l2.354-2.354a.5.5 0 0 0-.707-.707L24.5 15.293v-1.586l1.354-1.354a.5.5 0 0 0-.707-.707l-.647.647V10.5a.5.5 0 0 0-1 0v1.793l-.646-.646a.5.5 0 0 0-.707.707l1.354 1.354v1.586l-1.646-1.646a.5.5 0 0 0-.707.707l2.354 2.354v1.586l-2.646-2.646a.5.5 0 0 0-.707.707l3.354 3.354v3.427l-2.968-1.713-1.227-4.581a.499.499 0 1 0-.966.258l.969 3.616-1.372-.792-.862-3.216a.507.507 0 0 0-.613-.354.501.501 0 0 0-.354.613l.603 2.249-1.374-.793-.495-1.849a.499.499 0 1 0-.966.258l.237.883-1.552-.896a.501.501 0 0 0-.687.18.498.498 0 0 0 .183.683l1.553.897-.883.236a.499.499 0 1 0 .258.966l1.85-.496 1.373.793-2.25.602a.501.501 0 0 0 .129.983.534.534 0 0 0 .13-.017l3.216-.862 1.373.792-3.615.969a.501.501 0 0 0 .129.983.534.534 0 0 0 .13-.017l4.581-1.228L23.001 24l-2.967 1.713-4.581-1.228a.506.506 0 0 0-.613.354.5.5 0 0 0 .354.613l3.615.969-1.373.792-3.216-.862a.508.508 0 0 0-.613.354.5.5 0 0 0 .354.613l2.25.602-1.373.793-1.85-.496a.509.509 0 0 0-.612.354.5.5 0 0 0 .354.612l.883.236-1.553.897a.5.5 0 1 0 .5.866l1.552-.896-.237.883a.5.5 0 0 0 .966.258l.495-1.849 1.374-.793-.603 2.249a.5.5 0 0 0 .967.26l.862-3.216 1.372-.792-.969 3.616a.5.5 0 0 0 .966.258l1.227-4.581 2.968-1.713v3.427l-3.354 3.354a.5.5 0 0 0 .707.707l2.646-2.646v1.586l-2.354 2.354a.5.5 0 0 0 .707.707l1.646-1.646v1.586l-1.354 1.354a.5.5 0 0 0 .707.707l.646-.646v1.79a.5.5 0 0 0 1 0v-1.793l.646.646a.498.498 0 0 0 .708 0 .5.5 0 0 0 0-.707L24.5 34.293v-1.586l1.646 1.646a.498.498 0 0 0 .708 0 .5.5 0 0 0 0-.707L24.5 31.293v-1.586l2.646 2.646a.498.498 0 0 0 .708 0 .5.5 0 0 0 0-.707L24.5 28.293v-3.427l2.968 1.713 1.227 4.581a.502.502 0 0 0 .612.354.499.499 0 0 0 .354-.612l-.969-3.616 1.372.792.862 3.216a.502.502 0 0 0 .613.353.501.501 0 0 0 .354-.613l-.603-2.249 1.374.793.495 1.849a.502.502 0 0 0 .612.354.499.499 0 0 0 .354-.612l-.237-.883 1.552.896a.5.5 0 0 0 .501-.865z"/></svg>